<svg width="414" height="365" viewBox="0 0 414 365" fill="none" xmlns="http://www.w3.org/2000/svg">
<g clip-path="url('#clip0_245_197')">
<path d="M412.836 108.749C414.971 96.9711 412.69 86.1784 405.84 76.6482C403.168 72.9258 398.615 70.6125 395.21 67.3462C391.113 63.4201 384.27 64.6908 380.939 59.5836C380.279 58.5654 379.457 57.2051 379.636 56.1788C380.564 50.9657 383.92 47.2189 388.245 44.6612C396.7 39.6029 400.969 28.1423 397.352 18.2619C394.094 9.41597 388.042 3.03811 378.862 0.138345C377.607 -0.26078 376.035 0.317542 374.618 0.447869C375.27 1.76743 375.604 3.79564 376.646 4.27622C382.259 6.86646 385.663 11.4686 389.598 16.0138C394.982 22.2369 392.693 36.3773 385.468 40.727C378.064 45.1906 372.256 51.2508 372.574 59.8524C366.513 60.2922 360.746 60.7891 354.947 61.0253C354.002 61.0253 352.927 60.0397 352.047 59.3392C348.708 56.6594 345.816 52.8799 342.028 51.3893C331.171 47.1455 319.816 47.6098 308.632 50.2978C304.12 51.3812 299.754 53.0917 295.306 54.4601C290.321 55.9996 285.32 57.4821 280.327 58.9971C274.087 60.8869 267.97 63.6319 261.592 64.5034C251.158 65.9289 240.634 65.4401 230.64 61.2453C228.074 60.0867 225.451 59.0618 222.779 58.1744C221.541 57.7997 220.059 58.2722 218.707 58.3618C219.225 59.6272 219.815 60.8619 220.474 62.0598C220.8 62.5811 221.558 62.8743 222.103 63.192C232.033 69.1545 243.143 70.5229 254.335 70.9872C267.791 71.6144 279.936 65.7823 292.349 61.791C301.407 58.8749 310.009 54.6719 319.824 54.3542C329.639 54.0366 339.186 53.7841 346.394 62.3205C345.816 62.7037 345.212 63.0466 344.586 63.3468C338.11 65.9126 331.211 67.7453 325.257 71.2071C318.594 74.9652 312.482 79.6249 307.093 85.0543C300.682 91.7173 294.215 98.9015 290.101 107.088C282.502 122.157 276.564 138.081 269.99 153.671C268.54 157.117 267.921 161.051 265.918 164.106C260.924 171.73 255.443 179.036 249.993 186.343C242.54 196.361 233.58 204.694 222.103 209.932C214.056 213.597 206.057 217.344 197.985 220.952C197.576 221.077 197.145 221.109 196.723 221.047C196.3 220.985 195.897 220.83 195.541 220.594C192.185 217.955 188.341 215.633 185.807 212.326C180.676 205.647 174.143 203.929 166.177 204.116C156.826 204.336 149.739 208.189 144.893 215.862C141.92 220.578 139.061 225.188 133.954 228.129C133.245 226.956 132.211 226.003 132.105 224.952C131.681 220.578 128.513 219.022 125.14 217.45C120.994 215.519 116.457 214.013 112.922 211.251C109.851 208.808 107.465 208.938 104.247 210.086C98.4478 212.155 92.4528 213.679 86.7184 215.886C76.6018 219.788 66.6318 224.031 56.5803 228.104C46.7244 232.103 36.8359 235.997 27.0043 240.029C19.1766 243.287 11.3407 246.472 3.65958 250.023C2.0305 250.773 -0.0791657 253.029 0.00228848 254.471C0.23036 258.446 1.39516 262.38 2.39704 266.282C3.86322 271.983 5.70408 277.685 7.03179 283.387C9.58945 294.514 11.7806 305.722 14.3627 316.848C15.4541 321.581 17.7023 322.607 22.0519 321.043C30.0019 318.176 37.9273 315.244 45.9017 312.442C52.3692 310.169 58.8611 307.962 65.3937 305.868C77.21 302.067 89.048 298.334 100.908 294.668C108.239 292.42 115.512 290.131 122.9 288.274C130.288 286.417 136.234 283.265 139.093 275.706C139.99 273.051 141.301 270.554 142.979 268.31C146.327 264.196 147.565 260.238 143.973 255.709C143.716 255.196 143.54 254.646 143.451 254.08C146.204 252.565 148.689 250.985 151.344 249.779C157.046 247.173 162.96 246.154 169.264 247.482C173.035 248.297 177.19 249.062 180.839 248.297C185.468 247.201 189.875 245.322 193.871 242.741C198.302 239.988 199.093 234.906 199.427 229.88C207.857 228.471 216.059 226.801 224.335 225.807C232.671 224.735 240.759 222.23 248.242 218.403C242.988 226.915 237.718 235.427 231.324 242.986C226.983 247.905 223.257 253.334 220.23 259.154C217.574 264.522 215.888 270.297 221.093 275.559C221.389 276.009 221.574 276.523 221.632 277.059C221.69 277.594 221.62 278.135 221.427 278.638C219.888 281.807 217.591 284.666 216.418 287.948C213.722 295.467 211.645 303.205 209.087 310.756C208.061 313.761 206.839 316.905 204.9 319.357C194.914 331.999 181.279 338.548 165.867 342.01C164.048 342.528 162.163 342.778 160.272 342.751C149.023 341.936 139.224 344.73 131.062 352.949C129.042 354.977 126.452 356.403 128.252 359.465C130.199 362.797 133.058 361.013 135.355 359.75C144.021 355.002 153.315 355.523 161.713 358.879C168.808 361.713 175.495 360.956 181.873 359.392C194.816 356.215 206.586 350.302 215.22 339.501C217.444 336.715 219.725 333.97 222.152 331.355C228.888 324.13 234.851 316.4 239.201 307.465C240.577 304.63 242.402 302.007 244.308 298.798C244.658 299.857 244.911 300.224 244.862 300.549C243.786 308.157 246.01 315.447 249.138 321.866C255.019 333.913 265.429 340.853 278.641 343.663C283.1 344.574 287.463 345.902 291.673 347.63C297.929 350.261 301.79 355.441 304.991 361.282C305.806 362.756 307.997 363.465 309.553 364.54C310.294 363.082 311.638 361.624 311.646 360.166C311.646 356.965 310.897 353.772 310.62 350.554C309.675 339.501 304.356 332.634 293.514 328.635C275.049 321.768 271.644 302.569 277.297 286.93C280.604 287.101 283.813 287.224 286.957 287.435C292.659 287.826 297.204 284.951 300.479 281.017C302.108 279.054 301.163 275.103 301.855 272.163C303.207 266.461 303.794 260.124 306.669 255.212C312.143 245.886 318.716 237.154 325.404 228.593C332.262 219.788 341.442 213.556 350.858 207.732C363.003 200.214 375.473 193.168 384.108 181.162C388.881 174.532 394.583 168.561 399.258 161.874C407.925 149.493 412.291 135.491 413.056 120.43C413.211 116.561 412.16 112.513 412.836 108.749ZM123.886 252.923C122.094 251.954 120.302 250.985 118.062 249.787L121.231 244.957C122.705 246.953 124.09 248.476 124.994 250.243C125.246 250.789 124.293 252.035 123.886 252.915V252.923ZM132.308 274.476C131.046 277.457 129.172 278.932 125.539 279.942C114.054 283.143 102.928 287.59 91.5975 291.386C81.4483 294.791 71.2339 298.09 61.0196 301.201C49.7056 304.638 38.3183 307.831 26.9473 311.09C25.4241 311.529 23.8439 311.782 21.9623 312.181C18.3376 299.148 14.6315 286.531 11.3733 273.767C10.0945 268.725 9.74421 263.423 9.36138 258.218C9.27178 257.004 10.3633 254.96 11.4222 254.528C28.5764 247.197 44.8184 237.781 62.8442 232.437C71.1932 229.994 78.9803 225.644 87.2234 222.728C93.555 220.533 100.044 218.82 106.634 217.605C108.98 217.157 111.782 218.419 114.209 219.356C116.543 220.104 118.698 221.323 120.541 222.937C122.385 224.551 123.878 226.526 124.929 228.739C125.165 229.179 123.536 231.183 122.412 231.704C118.241 233.7 113.9 235.321 109.672 237.203C104.117 239.646 100.777 248.077 102.92 253.933C105.551 261.101 111.464 264.262 118.526 262.29C119.686 261.928 120.878 261.677 122.086 261.541C128.602 261.028 129.376 258.364 131.396 253.396C133.188 249.022 131.168 244.59 127.063 241.536C126.424 240.939 125.848 240.279 125.344 239.565L129.172 237.04C131.437 243.067 132.911 249.127 135.868 254.349C140.429 262.429 135.021 268.074 132.308 274.468V274.476ZM114.193 255.896C109.705 255.082 108.108 252.182 109.697 246.635C111.326 249.991 112.792 252.997 114.193 255.888V255.896ZM184.561 240.844C179.842 241.877 174.983 242.12 170.184 241.56C159.661 240.086 149.821 240.827 140.682 247.604C139.932 245.397 139.33 243.532 138.645 241.642C136.479 235.769 136.805 236.152 141.154 232.177C144.64 228.992 148.347 225.147 149.788 220.871C151.23 216.595 154.537 215.552 157.119 213.336C162.577 208.588 173.345 209.924 178.371 215.137C181.547 218.395 185.164 221.295 188.707 224.455C185.262 227.363 182.614 229.269 180.448 231.607C179.633 232.462 179.983 234.368 179.796 235.785C181.376 235.924 183.152 236.6 184.496 236.087C186.671 235.272 188.569 233.708 191.151 232.12C191.045 237.374 188.259 240.086 184.561 240.835V240.844ZM224.523 220.016C219.367 220.7 214.292 221.971 208.867 222.272C229.133 214.998 245.521 202.617 259.198 186.106C257.21 192.492 256.892 198.927 252.51 204.621C245.212 214.078 235.894 218.493 224.523 220.008V220.016ZM288.057 277.213C286.607 278.532 283.919 279.656 282.16 279.241C275.399 277.547 273.827 277.669 271.359 284.462C264.37 303.653 267.815 321.882 287.03 333.555C289.711 335.082 292.515 336.382 295.412 337.44C299.314 338.988 301.863 341.553 302.678 346.082C298.784 344.03 295.274 341.659 291.405 340.275C287.169 338.768 282.445 338.646 278.242 337.073C273.378 335.318 268.775 332.912 264.557 329.922C258.522 325.434 253.879 319.781 253.577 311.513C253.422 307.204 251.696 302.895 251.948 298.652C252.29 292.363 257.275 288.413 261.258 284.153C262.757 282.524 264.899 281.294 262.985 278.801C261.177 276.439 259.108 276.749 256.575 278.093C248.38 282.426 243.469 289.765 238.59 297.153C232.806 305.909 227.398 314.918 221.248 323.405C216.98 329.286 212.378 335.233 206.798 339.778C196.853 347.923 185.962 355.026 172.327 354.513C167.757 354.342 163.261 352.224 158.724 351.043C156.785 350.546 154.814 350.155 152.558 349.65C153.505 349.421 154.475 349.301 155.449 349.292C166.812 350.684 176.766 346.367 186.777 341.904C197.993 336.902 207.645 329.865 213.6 319.137C217.118 312.8 218.422 305.29 221.183 298.456C223.341 293.153 225.549 287.639 228.946 283.135C232.855 277.962 238.125 273.832 242.736 269.173C244.218 267.675 245.473 265.915 246.808 264.286C246.67 263.773 246.531 263.268 246.385 262.755C245.09 262.755 243.542 262.299 242.548 262.844C239.649 264.473 237.05 266.583 234.191 268.277C232.644 269.19 230.803 270.191 229.125 270.143C227.056 270.077 225.573 268.758 227.382 266.339C227.974 265.464 228.464 264.524 228.84 263.537C233.393 252.85 242.589 248.875 253.773 252.744C258.611 254.373 263.653 255.522 268.369 257.476C271.122 258.617 273.493 260.8 275.888 262.714C279.734 265.645 283.413 268.788 286.908 272.13C288.016 273.254 288.741 276.602 288.081 277.205L288.057 277.213ZM404.023 110.818C402.027 112.35 401.335 115.469 399.47 117.269C393.515 122.971 385.965 123.134 378.292 122.54C376.206 122.377 374.129 122.165 371.474 121.929C372.826 126.653 375.987 128.445 382.063 128.567C389.296 128.763 396.277 127.753 403.241 124.274L403.119 124.617C403.51 124.055 404.528 124.046 404.569 124.885C404.598 127.107 404.346 129.324 403.819 131.483C403.363 133.682 402.948 135.89 402.459 138.081C402.14 139.552 401.737 141.005 401.254 142.431C400.515 144.93 399.484 147.333 398.183 149.59C397.547 151.674 396.678 153.68 395.593 155.569C394.469 157.801 393.467 160.082 392.237 162.257C389.687 166.753 385.72 170.255 382.698 174.401C382.621 174.51 382.516 174.596 382.394 174.65C382.273 174.705 382.139 174.726 382.006 174.711C381.721 175.077 381.444 175.452 381.191 175.811C379.196 178.254 377.119 180.641 375.221 183.207C375.169 183.285 375.101 183.351 375.023 183.403C374.945 183.455 374.857 183.49 374.765 183.508C371.579 187.19 367.992 190.504 364.07 193.388C358.808 197.266 352.821 200.149 347.241 203.595C334.404 211.528 322.243 220.211 313.845 233.203C311.442 236.901 308.2 240.062 305.83 243.792C301.88 249.991 297.799 256.181 296.642 263.716C296.207 265.567 295.641 267.386 294.948 269.157C279.863 254.292 262.448 245.095 240.984 244.419C242.499 241.976 244.332 239.377 245.872 236.583C250.213 228.748 255.076 221.107 258.522 212.905C262.342 203.806 264.867 194.17 267.864 184.722C270.674 175.868 272.988 166.802 276.222 158.127C280.115 147.652 284.514 137.34 289.148 127.174C292.618 119.534 295.925 111.56 300.886 104.913C309.536 93.3138 318.586 81.4377 332.848 76.2084C343.543 72.266 354.206 66.6131 365.772 67.8512C373.494 68.6657 382.063 66.3687 389.011 71.6307C391.194 73.2597 394.159 74.1802 396.195 76.0536L396.342 76.1269C399.356 78.4891 402.98 81.1852 404.072 84.9647L404.227 85.1765C404.324 85.3027 404.383 85.4535 404.399 85.6117C404.415 85.77 404.386 85.9296 404.316 86.0725C404.371 86.4393 404.401 86.8094 404.406 87.1803C404.387 87.3584 404.309 87.5251 404.185 87.6547C404.062 87.7843 403.899 87.8694 403.722 87.8971C403.311 87.9866 402.886 87.9866 402.475 87.8971L402.744 88.003L387.187 89.5587C387.138 89.5587 387.113 89.5587 387.064 89.5587C384.034 89.7542 381.411 91.1878 378.658 92.3363C377.368 93.9915 376.169 95.7154 375.066 97.5005C374.341 98.7956 373.307 100.759 373.795 101.728C374.92 103.935 376.801 102.657 378.153 101.532C382.812 97.6716 388.449 96.1239 394.175 95.4804C397.368 95.122 400.765 96.295 404.023 96.9629C404.618 97.0932 405.172 98.3395 405.367 99.1622C405.694 100.752 405.93 102.359 406.076 103.976C406.41 106.574 406.646 108.798 404.023 110.818Z" fill="#FCFAFA"></path>
<path d="M353.228 128.958L349.807 129.903C350.956 129.634 352.096 129.316 353.228 128.958Z" fill="#FCFAFA"></path>
<path d="M118.062 249.779L121.231 244.949C122.705 246.945 124.09 248.468 124.994 250.235C125.279 250.789 124.293 252.003 123.886 252.915C122.094 251.946 120.302 250.977 118.062 249.779Z" fill="#FCFAFA"></path>
<path d="M109.697 246.627C111.326 249.991 112.792 252.997 114.193 255.888C109.705 255.09 108.141 252.174 109.697 246.627Z" fill="#FCFAFA"></path>
<path d="M354.132 98.8038C352.853 101.94 351.534 102.616 348.569 101.989C338.281 99.8138 327.961 100.017 317.942 103.618C315.965 104.455 314.141 105.614 312.542 107.047C310.269 108.896 307.899 108.611 306.563 106.599C305.879 105.573 306.563 102.339 307.655 101.663C311.678 99.1133 315.914 96.6046 320.427 95.1465C329.321 92.2122 338.927 92.2408 347.803 95.228C350.06 95.9855 352.088 97.6064 354.132 98.8038Z" fill="#FCFAFA"></path>
<path d="M384.271 158.029C384.955 156.799 384.376 154.869 384.376 153.256C382.87 153.574 380.858 153.37 379.937 154.274C372.5 161.605 363.337 163.161 353.668 161.792C348.61 161.084 343.34 159.593 340.334 154.461C339.886 153.696 338.062 152.898 337.483 153.223C336.522 153.753 335.251 155.529 335.528 156.164C336.547 158.502 337.695 161.165 339.601 162.68C344.651 166.631 350.687 168.032 357.228 168.496C361.96 167.681 366.766 167.176 371.417 166.052C376.5 164.733 381.542 162.957 384.271 158.029Z" fill="#FCFAFA"></path>
<path d="M357.154 122.825C355.696 120.063 353.358 121.473 351.241 122.613C345.058 125.936 338.566 127.419 331.798 124.698C328.45 123.346 325.436 121.155 322.08 119.811C320.516 119.184 318.512 119.681 316.704 119.664C317.519 121.399 317.877 124.112 319.205 124.706C325.721 127.63 331.692 132.591 339.642 131.394C339.7 131.373 339.76 131.356 339.821 131.345C343.181 131.12 346.518 130.625 349.799 129.862L353.22 128.917L354.458 128.51C354.569 128.466 354.689 128.446 354.808 128.453C357.651 127.525 358.425 125.244 357.154 122.825Z" fill="#FCFAFA"></path>
</g>
<defs>
<clipPath id="clip0_245_197">
<rect width="413.608" height="364.54" fill="white"></rect>
</clipPath>
</defs>
</svg>